# xmcd
#
# Track frame offsets:
#	150
#	15295
#	30307
#	41405
#	52299
#	64098
#	73812
#	86105
#	99816
#	109840
#	121316
#	133493
#	145509
#	159585
#	172189
#	184938
#	195620
#	210928
#	223035
#	235175
#	246159
#	259431
#	269860
#	280395
#	291496
#	305127
#	319369
#
# Disc length: 4435 seconds
#
# Revision: 0
# Processed by: cddbd v1.5.2PL0 Copyright (c) Steve Scherf et al.
# Submitted via: EZCDAudioConverter 2.1.7.1
#
DISCID=ae11511b
DTITLE=Connie Smith - Just For What I Am CD 1
DYEAR=1900
DGENRE=
TTITLE0=Family Bible
TTITLE1=Today I Started Loving You Again
TTITLE2=Heartbreak Avenue
TTITLE3=Walk Through This World With Me
TTITLE4=If The Whole World Stopped Loving
TTITLE5=That's All This Old World Needs
TTITLE6=I Love Charley Brown
TTITLE7=There Are Some Things
TTITLE8=Sunshine Of My World
TTITLE9=Run Away Little Tears
TTITLE10=Rings Of Gold
TTITLE11=Between Each Tear
TTITLE12=Little Things
TTITLE13=What Makes A Man Wander
TTITLE14=Hurt Goes On
TTITLE15=What Would I Do Without You
TTITLE16=Deepening Snow
TTITLE17=Natchilly Ain't No Good
TTITLE18=To Chicago With Love
TTITLE19=Just A Little Sunshine In The Rain
TTITLE20=Gentle On My Mind
TTITLE21=You Are Gone
TTITLE22=Sundown Of My Mind
TTITLE23=Only Mama That'll Walk The Line
TTITLE24=Lonely Woman
TTITLE25=Blue Little Girl
TTITLE26=Seattle
EXTD=
EXTT0=
EXTT1=
EXTT2=
EXTT3=
EXTT4=
EXTT5=
EXTT6=
EXTT7=
EXTT8=
EXTT9=
EXTT10=
EXTT11=
EXTT12=
EXTT13=
EXTT14=
EXTT15=
EXTT16=
EXTT17=
EXTT18=
EXTT19=
EXTT20=
EXTT21=
EXTT22=
EXTT23=
EXTT24=
EXTT25=
EXTT26=
PLAYORDER=
